<svg width="14" height="14" viewBox="0 0 14 14" fill="none" xmlns="http://www.w3.org/2000/svg">
<path d="M2.91663 8.33382C1.83667 8.81022 1.16663 9.47412 1.16663 10.2084C1.16663 11.6582 3.7783 12.8334 6.99996 12.8334C10.2216 12.8334 12.8333 11.6582 12.8333 10.2084C12.8333 9.47412 12.1633 8.81022 11.0833 8.33382M10.5 4.66675C10.5 7.03724 7.87496 8.16675 6.99996 9.91675C6.12496 8.16675 3.49996 7.03724 3.49996 4.66675C3.49996 2.73375 5.06696 1.16675 6.99996 1.16675C8.93295 1.16675 10.5 2.73375 10.5 4.66675ZM7.58329 4.66675C7.58329 4.98891 7.32213 5.25008 6.99996 5.25008C6.67778 5.25008 6.41663 4.98891 6.41663 4.66675C6.41663 4.34458 6.67778 4.08341 6.99996 4.08341C7.32213 4.08341 7.58329 4.34458 7.58329 4.66675Z" stroke="#9B9B9B" stroke-width="1.5" stroke-linecap="round" stroke-linejoin="round"/>
</svg>
